<?xml version="1.0" encoding="utf-8"?>
<!-- Generator: Adobe Illustrator 19.2.1, SVG Export Plug-In . SVG Version: 6.00 Build 0)  -->
<!DOCTYPE svg PUBLIC "-//W3C//DTD SVG 1.1//EN" "http://www.w3.org/Graphics/SVG/1.1/DTD/svg11.dtd">
<svg version="1.1" id="Layer_1" xmlns="http://www.w3.org/2000/svg" xmlns:xlink="http://www.w3.org/1999/xlink" x="0px" y="0px"
	 viewBox="0 0 148.4 22.1" style="enable-background:new 0 0 148.4 22.1;" xml:space="preserve">
<g>
	<path d="M15.1,15L9.5,1.5L3.9,15l-0.4,1l-2.4,5.7H0L8.9,0.4h1.2L19,21.7h-1.2L15.5,16L15.1,15z"/>
	<path d="M31.6,11c0-6.6,4.7-11,10.7-11c3.2,0,5.7,1.2,7.8,3.3L49.4,4c-1.7-1.9-4.3-3-7.1-3C37,1,32.8,5,32.8,11
		c0,6,4.2,10.1,9.5,10.1c3.1,0,5.5-1.6,6.8-2.9v-5.9h-8.8v-1h9.8v7.2c-1.8,2-4.6,3.4-7.8,3.4C36.4,22.1,31.6,17.6,31.6,11z"/>
	<path d="M66.2,21.7V0.4h1v21.3H66.2z"/>
	<path d="M90.5,11.5h1.9c3.1,0,5.2-2.2,5.2-5.1s-2-5.1-5.2-5.1H86v10.2v1v9.2h-1V0.4h7.4c3.5,0,6.3,2.1,6.3,6s-2.8,6.1-6.3,6.1
		l6.6,9.2h-1.3l-6.5-9.2"/>
	<path d="M114.7,21.7V0.4h1v21.3H114.7z"/>
	<path d="M144.4,15l-5.6-13.5L133.3,15l-0.4,1l-2.4,5.7h-1.2l8.9-21.3h1.2l8.9,21.3h-1.2l-2.4-5.7L144.4,15z"/>
</g>
</svg>
